<mxfile host="app.diagrams.net" agent="Mozilla/5.0 (Windows NT 10.0; Win64; x64) AppleWebKit/537.36 (KHTML, like Gecko) Chrome/136.0.0.0 Safari/537.36" version="27.0.9">
  <diagram name="Page-1" id="hMd5j2KLt-g2mBihVLUl">
    <mxGraphModel dx="1042" dy="535" grid="1" gridSize="10" guides="1" tooltips="1" connect="1" arrows="1" fold="1" page="1" pageScale="1" pageWidth="827" pageHeight="1169" math="0" shadow="0">
      <root>
        <mxCell id="0" />
        <mxCell id="1" parent="0" />
        <mxCell id="OKNw2WMSEUquyqYwd9lc-7" value="" style="edgeStyle=orthogonalEdgeStyle;rounded=0;orthogonalLoop=1;jettySize=auto;html=1;" edge="1" parent="1" source="OKNw2WMSEUquyqYwd9lc-2" target="OKNw2WMSEUquyqYwd9lc-3">
          <mxGeometry relative="1" as="geometry" />
        </mxCell>
        <mxCell id="OKNw2WMSEUquyqYwd9lc-2" value="P1&amp;nbsp;&lt;div&gt;Upravljanje treninzima: kreiranje i evidencija treninga, raspored i vođenje treninga.&lt;/div&gt;" style="rounded=1;whiteSpace=wrap;html=1;" vertex="1" parent="1">
          <mxGeometry x="339" y="40" width="150" height="110" as="geometry" />
        </mxCell>
        <mxCell id="OKNw2WMSEUquyqYwd9lc-8" value="" style="edgeStyle=orthogonalEdgeStyle;rounded=0;orthogonalLoop=1;jettySize=auto;html=1;" edge="1" parent="1" source="OKNw2WMSEUquyqYwd9lc-3" target="OKNw2WMSEUquyqYwd9lc-4">
          <mxGeometry relative="1" as="geometry" />
        </mxCell>
        <mxCell id="OKNw2WMSEUquyqYwd9lc-3" value="P2&lt;div&gt;Upravljanje ekipama i zapisnicima: oblikovanje ekipa, vidljivost i pristup zapisnicima za igrače&lt;/div&gt;" style="rounded=1;whiteSpace=wrap;html=1;" vertex="1" parent="1">
          <mxGeometry x="339" y="240" width="150" height="110" as="geometry" />
        </mxCell>
        <mxCell id="OKNw2WMSEUquyqYwd9lc-9" value="" style="edgeStyle=orthogonalEdgeStyle;rounded=0;orthogonalLoop=1;jettySize=auto;html=1;" edge="1" parent="1" source="OKNw2WMSEUquyqYwd9lc-4" target="OKNw2WMSEUquyqYwd9lc-5">
          <mxGeometry relative="1" as="geometry" />
        </mxCell>
        <mxCell id="OKNw2WMSEUquyqYwd9lc-4" value="P3&lt;div&gt;Upravljanje terminima i događajima: unos i brisanje termina, upravljanje i evidencija događaja&lt;/div&gt;" style="rounded=1;whiteSpace=wrap;html=1;" vertex="1" parent="1">
          <mxGeometry x="339" y="440" width="150" height="110" as="geometry" />
        </mxCell>
        <mxCell id="OKNw2WMSEUquyqYwd9lc-37" value="&lt;div&gt;&lt;span style=&quot;background-color: light-dark(#ffffff, var(--ge-dark-color, #121212)); color: light-dark(rgb(0, 0, 0), rgb(255, 255, 255));&quot;&gt;Potvrda&lt;/span&gt;&lt;/div&gt;&lt;div&gt;prijave&lt;/div&gt;" style="edgeStyle=orthogonalEdgeStyle;rounded=0;orthogonalLoop=1;jettySize=auto;html=1;entryX=0;entryY=0.25;entryDx=0;entryDy=0;" edge="1" parent="1" source="OKNw2WMSEUquyqYwd9lc-5" target="OKNw2WMSEUquyqYwd9lc-13">
          <mxGeometry x="-0.0807" y="-10" relative="1" as="geometry">
            <Array as="points">
              <mxPoint x="30" y="680" />
              <mxPoint x="30" y="365" />
            </Array>
            <mxPoint as="offset" />
          </mxGeometry>
        </mxCell>
        <mxCell id="OKNw2WMSEUquyqYwd9lc-44" value="" style="edgeStyle=orthogonalEdgeStyle;rounded=0;orthogonalLoop=1;jettySize=auto;html=1;" edge="1" parent="1" source="OKNw2WMSEUquyqYwd9lc-5" target="OKNw2WMSEUquyqYwd9lc-6">
          <mxGeometry relative="1" as="geometry" />
        </mxCell>
        <mxCell id="OKNw2WMSEUquyqYwd9lc-5" value="P4&lt;div&gt;Upravljanje korisnicima i pristupima:&amp;nbsp;Dodavanje ili brisanje korisnika, upravljanje ulogama, prijava na treninge&lt;/div&gt;" style="rounded=1;whiteSpace=wrap;html=1;" vertex="1" parent="1">
          <mxGeometry x="339" y="640" width="150" height="110" as="geometry" />
        </mxCell>
        <mxCell id="OKNw2WMSEUquyqYwd9lc-43" value="Status sustava,&lt;div&gt;izvještaji o greškama&lt;/div&gt;" style="edgeStyle=orthogonalEdgeStyle;rounded=0;orthogonalLoop=1;jettySize=auto;html=1;entryX=1;entryY=0.75;entryDx=0;entryDy=0;" edge="1" parent="1" source="OKNw2WMSEUquyqYwd9lc-6" target="OKNw2WMSEUquyqYwd9lc-14">
          <mxGeometry relative="1" as="geometry">
            <mxPoint x="414" y="1055" as="targetPoint" />
            <Array as="points">
              <mxPoint x="280" y="860" />
              <mxPoint x="280" y="745" />
            </Array>
          </mxGeometry>
        </mxCell>
        <mxCell id="OKNw2WMSEUquyqYwd9lc-6" value="P5&lt;div&gt;Održavanje i sigurnosne kopije: backup baze, ažuriranja, praćenje rada sustava&lt;/div&gt;" style="rounded=1;whiteSpace=wrap;html=1;" vertex="1" parent="1">
          <mxGeometry x="339" y="840" width="150" height="110" as="geometry" />
        </mxCell>
        <mxCell id="OKNw2WMSEUquyqYwd9lc-24" value="Unos treninga" style="edgeStyle=orthogonalEdgeStyle;rounded=0;orthogonalLoop=1;jettySize=auto;html=1;entryX=0;entryY=0.5;entryDx=0;entryDy=0;exitX=0.5;exitY=0;exitDx=0;exitDy=0;" edge="1" parent="1" source="OKNw2WMSEUquyqYwd9lc-11" target="OKNw2WMSEUquyqYwd9lc-2">
          <mxGeometry relative="1" as="geometry">
            <mxPoint x="210" y="215" as="sourcePoint" />
            <mxPoint x="329" y="90" as="targetPoint" />
          </mxGeometry>
        </mxCell>
        <mxCell id="OKNw2WMSEUquyqYwd9lc-11" value="Trener" style="rounded=0;whiteSpace=wrap;html=1;" vertex="1" parent="1">
          <mxGeometry x="100" y="190" width="120" height="60" as="geometry" />
        </mxCell>
        <mxCell id="OKNw2WMSEUquyqYwd9lc-33" value="Unos i brisanje termina&lt;div&gt;upravljanje događajima&lt;/div&gt;" style="edgeStyle=orthogonalEdgeStyle;rounded=0;orthogonalLoop=1;jettySize=auto;html=1;entryX=0;entryY=0.5;entryDx=0;entryDy=0;exitX=0.5;exitY=0;exitDx=0;exitDy=0;" edge="1" parent="1" source="OKNw2WMSEUquyqYwd9lc-12" target="OKNw2WMSEUquyqYwd9lc-4">
          <mxGeometry relative="1" as="geometry" />
        </mxCell>
        <mxCell id="OKNw2WMSEUquyqYwd9lc-38" value="Upravljanje pristupom" style="edgeStyle=orthogonalEdgeStyle;rounded=0;orthogonalLoop=1;jettySize=auto;html=1;entryX=0.116;entryY=-0.011;entryDx=0;entryDy=0;entryPerimeter=0;" edge="1" parent="1" source="OKNw2WMSEUquyqYwd9lc-12" target="OKNw2WMSEUquyqYwd9lc-5">
          <mxGeometry relative="1" as="geometry">
            <Array as="points">
              <mxPoint x="160" y="600" />
              <mxPoint x="356" y="600" />
            </Array>
          </mxGeometry>
        </mxCell>
        <mxCell id="OKNw2WMSEUquyqYwd9lc-12" value="Administrator&lt;div&gt;&lt;br&gt;&lt;/div&gt;" style="rounded=0;whiteSpace=wrap;html=1;" vertex="1" parent="1">
          <mxGeometry x="100" y="524.5" width="120" height="60" as="geometry" />
        </mxCell>
        <mxCell id="OKNw2WMSEUquyqYwd9lc-28" value="Pristup zapisnicima,&lt;div&gt;pregled vlastitih aktivnosti&lt;/div&gt;" style="edgeStyle=orthogonalEdgeStyle;rounded=0;orthogonalLoop=1;jettySize=auto;html=1;entryX=0;entryY=0.5;entryDx=0;entryDy=0;exitX=0.5;exitY=0;exitDx=0;exitDy=0;" edge="1" parent="1" source="OKNw2WMSEUquyqYwd9lc-13" target="OKNw2WMSEUquyqYwd9lc-3">
          <mxGeometry relative="1" as="geometry" />
        </mxCell>
        <mxCell id="OKNw2WMSEUquyqYwd9lc-36" value="Prijava na trening" style="edgeStyle=orthogonalEdgeStyle;rounded=0;orthogonalLoop=1;jettySize=auto;html=1;entryX=0;entryY=0.5;entryDx=0;entryDy=0;exitX=0;exitY=0.5;exitDx=0;exitDy=0;" edge="1" parent="1">
          <mxGeometry x="-0.0592" y="-10" relative="1" as="geometry">
            <mxPoint x="100" y="360" as="sourcePoint" />
            <mxPoint x="339" y="655" as="targetPoint" />
            <Array as="points">
              <mxPoint x="100" y="390" />
              <mxPoint x="80" y="390" />
              <mxPoint x="80" y="655" />
            </Array>
            <mxPoint as="offset" />
          </mxGeometry>
        </mxCell>
        <mxCell id="OKNw2WMSEUquyqYwd9lc-13" value="Igrači" style="rounded=0;whiteSpace=wrap;html=1;" vertex="1" parent="1">
          <mxGeometry x="100" y="350" width="120" height="60" as="geometry" />
        </mxCell>
        <mxCell id="OKNw2WMSEUquyqYwd9lc-41" value="Ažuriranje sustava" style="edgeStyle=orthogonalEdgeStyle;rounded=0;orthogonalLoop=1;jettySize=auto;html=1;entryX=0;entryY=0.5;entryDx=0;entryDy=0;" edge="1" parent="1" source="OKNw2WMSEUquyqYwd9lc-14" target="OKNw2WMSEUquyqYwd9lc-6">
          <mxGeometry relative="1" as="geometry">
            <mxPoint x="160" y="840" as="targetPoint" />
            <Array as="points">
              <mxPoint x="160" y="895" />
            </Array>
          </mxGeometry>
        </mxCell>
        <mxCell id="OKNw2WMSEUquyqYwd9lc-14" value="Održavanje sustava" style="rounded=0;whiteSpace=wrap;html=1;" vertex="1" parent="1">
          <mxGeometry x="100" y="700" width="120" height="60" as="geometry" />
        </mxCell>
        <mxCell id="OKNw2WMSEUquyqYwd9lc-15" value="Baza podataka" style="shape=cylinder3;whiteSpace=wrap;html=1;boundedLbl=1;backgroundOutline=1;size=15;" vertex="1" parent="1">
          <mxGeometry x="650" y="280" width="60" height="80" as="geometry" />
        </mxCell>
        <mxCell id="OKNw2WMSEUquyqYwd9lc-18" value="Spremanje i dohvat&amp;nbsp;&lt;div&gt;podataka o treninzima&lt;/div&gt;" style="endArrow=classic;html=1;rounded=0;exitX=1;exitY=0.5;exitDx=0;exitDy=0;entryX=0.145;entryY=0;entryDx=0;entryDy=4.35;entryPerimeter=0;" edge="1" parent="1" source="OKNw2WMSEUquyqYwd9lc-2" target="OKNw2WMSEUquyqYwd9lc-15">
          <mxGeometry width="50" height="50" relative="1" as="geometry">
            <mxPoint x="390" y="280" as="sourcePoint" />
            <mxPoint x="440" y="230" as="targetPoint" />
          </mxGeometry>
        </mxCell>
        <mxCell id="OKNw2WMSEUquyqYwd9lc-19" value="Spremanje i dohvat&amp;nbsp;&lt;div&gt;zapisnika i timova&lt;/div&gt;" style="endArrow=classic;html=1;rounded=0;exitX=1;exitY=0.5;exitDx=0;exitDy=0;entryX=0;entryY=0;entryDx=0;entryDy=15;entryPerimeter=0;" edge="1" parent="1" source="OKNw2WMSEUquyqYwd9lc-3" target="OKNw2WMSEUquyqYwd9lc-15">
          <mxGeometry width="50" height="50" relative="1" as="geometry">
            <mxPoint x="390" y="280" as="sourcePoint" />
            <mxPoint x="440" y="230" as="targetPoint" />
          </mxGeometry>
        </mxCell>
        <mxCell id="OKNw2WMSEUquyqYwd9lc-20" value="Unos i brisanje&lt;div&gt;termina&lt;/div&gt;" style="endArrow=classic;html=1;rounded=0;exitX=1;exitY=0.5;exitDx=0;exitDy=0;entryX=0;entryY=0;entryDx=0;entryDy=52.5;entryPerimeter=0;" edge="1" parent="1" source="OKNw2WMSEUquyqYwd9lc-4" target="OKNw2WMSEUquyqYwd9lc-15">
          <mxGeometry width="50" height="50" relative="1" as="geometry">
            <mxPoint x="390" y="520" as="sourcePoint" />
            <mxPoint x="440" y="470" as="targetPoint" />
          </mxGeometry>
        </mxCell>
        <mxCell id="OKNw2WMSEUquyqYwd9lc-21" value="Evidencija korisnika&amp;nbsp;&lt;div&gt;i dohvat podataka o&lt;/div&gt;&lt;div&gt;ulogama&lt;/div&gt;" style="endArrow=classic;html=1;rounded=0;exitX=0.996;exitY=0.593;exitDx=0;exitDy=0;exitPerimeter=0;entryX=0.145;entryY=1;entryDx=0;entryDy=-4.35;entryPerimeter=0;" edge="1" parent="1" source="OKNw2WMSEUquyqYwd9lc-5" target="OKNw2WMSEUquyqYwd9lc-15">
          <mxGeometry width="50" height="50" relative="1" as="geometry">
            <mxPoint x="390" y="520" as="sourcePoint" />
            <mxPoint x="440" y="470" as="targetPoint" />
          </mxGeometry>
        </mxCell>
        <mxCell id="OKNw2WMSEUquyqYwd9lc-22" value="Sigurnosna kopija&lt;div&gt;&amp;nbsp;podataka,&lt;/div&gt;&lt;div&gt;&amp;nbsp;ažuriranje baze&lt;/div&gt;" style="endArrow=classic;html=1;rounded=0;entryX=0.5;entryY=1;entryDx=0;entryDy=0;entryPerimeter=0;exitX=1;exitY=0.5;exitDx=0;exitDy=0;" edge="1" parent="1" source="OKNw2WMSEUquyqYwd9lc-6" target="OKNw2WMSEUquyqYwd9lc-15">
          <mxGeometry width="50" height="50" relative="1" as="geometry">
            <mxPoint x="390" y="650" as="sourcePoint" />
            <mxPoint x="440" y="600" as="targetPoint" />
          </mxGeometry>
        </mxCell>
        <mxCell id="OKNw2WMSEUquyqYwd9lc-29" value="Prikaz timova i&lt;div&gt;&amp;nbsp;dnevnika treninga&lt;/div&gt;" style="endArrow=classic;html=1;rounded=0;exitX=0.169;exitY=1.015;exitDx=0;exitDy=0;exitPerimeter=0;entryX=1;entryY=0.5;entryDx=0;entryDy=0;" edge="1" parent="1" source="OKNw2WMSEUquyqYwd9lc-3" target="OKNw2WMSEUquyqYwd9lc-13">
          <mxGeometry width="50" height="50" relative="1" as="geometry">
            <mxPoint x="390" y="410" as="sourcePoint" />
            <mxPoint x="440" y="360" as="targetPoint" />
          </mxGeometry>
        </mxCell>
        <mxCell id="OKNw2WMSEUquyqYwd9lc-31" value="Prikaz planiranih treninga,&lt;div&gt;izvještaji o treninzima&lt;/div&gt;" style="endArrow=classic;html=1;rounded=0;entryX=1;entryY=0.5;entryDx=0;entryDy=0;exitX=0;exitY=0.75;exitDx=0;exitDy=0;" edge="1" parent="1" source="OKNw2WMSEUquyqYwd9lc-2" target="OKNw2WMSEUquyqYwd9lc-11">
          <mxGeometry width="50" height="50" relative="1" as="geometry">
            <mxPoint x="390" y="370" as="sourcePoint" />
            <mxPoint x="440" y="320" as="targetPoint" />
          </mxGeometry>
        </mxCell>
        <mxCell id="OKNw2WMSEUquyqYwd9lc-34" value="Povratne&amp;nbsp;&lt;div&gt;informacije&lt;div&gt;&amp;nbsp;o unosu&lt;/div&gt;&lt;/div&gt;" style="endArrow=classic;html=1;rounded=0;exitX=0;exitY=0.75;exitDx=0;exitDy=0;entryX=1;entryY=0.5;entryDx=0;entryDy=0;" edge="1" parent="1" source="OKNw2WMSEUquyqYwd9lc-4" target="OKNw2WMSEUquyqYwd9lc-12">
          <mxGeometry width="50" height="50" relative="1" as="geometry">
            <mxPoint x="390" y="650" as="sourcePoint" />
            <mxPoint x="440" y="600" as="targetPoint" />
          </mxGeometry>
        </mxCell>
      </root>
    </mxGraphModel>
  </diagram>
</mxfile>
